<svg width="22" height="26" viewBox="0 0 22 26" fill="none" xmlns="http://www.w3.org/2000/svg">
<path d="M12.5 5.18C12.224 5.18 12 4.956 12 4.68V3C12 2.449 11.551 2 11 2C10.449 2 10 2.449 10 3V4.68C10 4.956 9.776 5.18 9.5 5.18C9.224 5.18 9 4.957 9 4.68V3C9 1.897 9.897 1 11 1C12.103 1 13 1.897 13 3V4.68C13 4.957 12.776 5.18 12.5 5.18Z" fill="white" stroke="white"/>
<path d="M11 24.9999C9.07 24.9999 7.5 23.4299 7.5 21.4999C7.5 21.2239 7.724 20.9999 8 20.9999C8.276 20.9999 8.5 21.2239 8.5 21.4999C8.5 22.8779 9.622 23.9999 11 23.9999C12.378 23.9999 13.5 22.8779 13.5 21.4999C13.5 21.2239 13.724 20.9999 14 20.9999C14.276 20.9999 14.5 21.2239 14.5 21.4999C14.5 23.4299 12.93 24.9999 11 24.9999Z" fill="white" stroke="white"/>
<path d="M19.5 22H2.5C1.673 22 1 21.327 1 20.5C1 20.061 1.191 19.646 1.525 19.36C3.101 18.028 4 16.09 4 14.038V11C4 7.14 7.14 4 11 4C14.86 4 18 7.14 18 11V14.038C18 16.091 18.899 18.028 20.467 19.353C20.809 19.646 21 20.061 21 20.5C21 21.327 20.328 22 19.5 22ZM11 5C7.691 5 5 7.691 5 11V14.038C5 16.386 3.972 18.601 2.179 20.117C2.064 20.215 2 20.354 2 20.5C2 20.776 2.224 21 2.5 21H19.5C19.776 21 20 20.776 20 20.5C20 20.354 19.936 20.215 19.825 20.12C18.029 18.601 17 16.385 17 14.038V11C17 7.691 14.309 5 11 5Z" fill="white" stroke="white" stroke-width="0.8"/>
<path d="M21 7.5C21 9.433 19.433 11 17.5 11C15.567 11 14 9.433 14 7.5C14 5.567 15.567 4 17.5 4C19.433 4 21 5.567 21 7.5Z" fill="#FF971D"/>
</svg>
