<svg width="18" height="20" viewBox="0 0 18 20" fill="none" xmlns="http://www.w3.org/2000/svg">
<path d="M9 19.0732C10.78 19.0732 12.5201 18.5385 14.0001 17.5366C15.4802 16.5347 16.6337 15.1107 17.3149 13.4446C17.9961 11.7786 18.1743 9.94525 17.8271 8.17656C17.4798 6.40786 16.6226 4.78321 15.364 3.50806C14.1053 2.2329 12.5016 1.36451 10.7558 1.01269C9.00998 0.660873 7.20038 0.841438 5.55585 1.53155C3.91131 2.22166 2.50571 3.39032 1.51677 4.88975C0.527842 6.38917 0 8.15202 0 9.95537C0.0026989 12.3727 0.951778 14.6903 2.63902 16.3997C4.32626 18.109 6.61388 19.0705 9 19.0732ZM7.3758 6.73797C7.31849 6.6819 7.27278 6.61483 7.24134 6.54066C7.20989 6.4665 7.19334 6.38674 7.19265 6.30603C7.19196 6.22532 7.20714 6.14528 7.2373 6.07057C7.26747 5.99587 7.31203 5.928 7.36836 5.87093C7.4247 5.81385 7.49169 5.76872 7.56543 5.73815C7.63916 5.70759 7.71817 5.69221 7.79784 5.69291C7.87751 5.69361 7.95624 5.71038 8.02944 5.74224C8.10264 5.7741 8.16885 5.8204 8.2242 5.87846L11.8242 9.52561C11.9367 9.6396 11.9999 9.79418 11.9999 9.95537C11.9999 10.1165 11.9367 10.2711 11.8242 10.3851L8.2242 14.0323C8.11104 14.143 7.95948 14.2043 7.80216 14.2029C7.64484 14.2015 7.49435 14.1376 7.38311 14.0249C7.27186 13.9122 7.20876 13.7597 7.20739 13.6003C7.20603 13.441 7.2665 13.2874 7.3758 13.1728L10.5516 9.95537L7.3758 6.73797Z" fill="#816BFF"/>
</svg>
