<svg width="17" height="20" viewBox="0 0 17 20" fill="none" xmlns="http://www.w3.org/2000/svg">
<path d="M8.91016 1C6.29316 1 4.16406 3.1291 4.16406 5.74609C4.16406 8.36309 6.29316 10.4922 8.91016 10.4922C11.5272 10.4922 13.6562 8.36309 13.6562 5.74609C13.6562 3.1291 11.5272 1 8.91016 1ZM8.91016 9.4375C6.87471 9.4375 5.21875 7.78154 5.21875 5.74609C5.21875 3.71065 6.87471 2.05469 8.91016 2.05469C10.9456 2.05469 12.6016 3.71065 12.6016 5.74609C12.6016 7.78154 10.9456 9.4375 8.91016 9.4375Z" fill="#333333" stroke="#333333" stroke-width="0.25"/>
<path d="M14.8152 13.5928C13.5158 12.2734 11.7933 11.5469 9.96484 11.5469H7.85547C6.02706 11.5469 4.30448 12.2734 3.0051 13.5928C1.71209 14.9057 1 16.6387 1 18.4727C1 18.7639 1.23611 19 1.52734 19H16.293C16.5842 19 16.8203 18.7639 16.8203 18.4727C16.8203 16.6387 16.1082 14.9057 14.8152 13.5928ZM2.07789 17.9453C2.34209 14.954 4.83242 12.6016 7.85547 12.6016H9.96484C12.9879 12.6016 15.4782 14.954 15.7424 17.9453H2.07789Z" fill="#333333" stroke="#333333" stroke-width="0.25"/>
</svg>
