<svg width="11" height="7" viewBox="0 0 11 7" fill="none" xmlns="http://www.w3.org/2000/svg">
<path d="M5.32262 5.99999C5.232 6.00046 5.14217 5.98471 5.05828 5.95362C4.97439 5.92253 4.89809 5.87673 4.83375 5.81883L0.702495 2.07076C0.57284 1.95313 0.5 1.79359 0.5 1.62724C0.5 1.46088 0.57284 1.30134 0.702495 1.18371C0.83215 1.06608 1.008 1 1.19136 1C1.37472 1 1.55057 1.06608 1.68023 1.18371L5.32262 4.49451L8.96501 1.18996C9.09673 1.08762 9.26617 1.03414 9.43946 1.04022C9.61275 1.04629 9.77713 1.11146 9.89976 1.22272C10.0224 1.33397 10.0942 1.4831 10.1009 1.64032C10.1076 1.79754 10.0487 1.95126 9.93586 2.07076L5.8046 5.81883C5.67635 5.93424 5.50325 5.9993 5.32262 5.99999Z" fill="white" stroke="white" stroke-width="0.2"/>
</svg>
