<svg width="23" height="18" viewBox="0 0 23 18" fill="none" xmlns="http://www.w3.org/2000/svg">
<path d="M20.5555 1H2.77779C1.79729 1 1 1.79729 1 2.77779V15.2223C1 16.2027 1.79729 17 2.77779 17H20.5556C21.536 17 22.3333 16.2027 22.3333 15.2222V2.77779C22.3333 1.79729 21.536 1 20.5555 1ZM2.77779 1.88888H20.5556C20.6211 1.88888 20.6788 1.91275 20.7402 1.92625C19.2011 3.33488 14.0976 8.00371 12.3117 9.61283C12.1719 9.73871 11.9467 9.88888 11.6667 9.88888C11.3867 9.88888 11.1615 9.73871 11.0213 9.61242C9.2355 8.00354 4.13171 3.33446 2.59283 1.92633C2.65442 1.91283 2.71225 1.88888 2.77779 1.88888ZM1.88887 15.2222V2.77779C1.88887 2.69071 1.91512 2.61171 1.93862 2.53213C3.11662 3.61029 6.67762 6.86796 8.98662 8.96767C6.68512 10.9446 3.12321 14.3216 1.93583 15.4539C1.91487 15.3783 1.88887 15.3044 1.88887 15.2222ZM20.5555 16.1111H2.77779C2.70679 16.1111 2.64367 16.0864 2.57737 16.0705C3.80433 14.9009 7.38892 11.5045 9.64996 9.57017C9.94471 9.83754 10.214 10.0813 10.4262 10.2726C10.7925 10.6033 11.2213 10.7778 11.6667 10.7778C12.112 10.7778 12.5408 10.6033 12.9067 10.273C13.119 10.0817 13.3885 9.83767 13.6834 9.57017C15.9445 11.5042 19.5286 14.9004 20.756 16.0705C20.6897 16.0864 20.6266 16.1111 20.5555 16.1111ZM21.4445 15.2222C21.4445 15.3043 21.4185 15.3783 21.3975 15.4539C20.2097 14.321 16.6482 10.9444 14.3467 8.96771C16.6558 6.868 20.2163 3.61063 21.3947 2.53204C21.4182 2.61162 21.4445 2.69067 21.4445 2.77775V15.2222Z" fill="#333333" stroke="#333333" stroke-width="0.3"/>
</svg>
