<svg width="47" height="52" viewBox="0 0 47 52" fill="none" xmlns="http://www.w3.org/2000/svg">
<path d="M32.0347 1H1V51H46V13.155L32.0347 1ZM32.5957 3.845L42.7313 12.6667H32.5957V3.845ZM2.91489 49.3333V2.66667H30.6809V14.3333H44.0851V49.3333H2.91489Z" fill="white" stroke="white" stroke-width="0.9"/>
<path d="M35.1667 27.5H21.8333C21.3733 27.5 21 27.8725 21 28.3333C21 28.7942 21.3733 29.1667 21.8333 29.1667H35.1667C35.6267 29.1667 36 28.7942 36 28.3333C36 27.8725 35.6267 27.5 35.1667 27.5Z" fill="white" stroke="white" stroke-width="0.9"/>
<path d="M14.646 26.1829L11.0619 29.0504L9.92271 27.9112C9.59688 27.5854 9.07021 27.5854 8.74438 27.9112C8.41854 28.2371 8.41854 28.7637 8.74438 29.0896L10.411 30.7562C10.5727 30.9179 10.786 31.0004 11.0002 31.0004C11.1835 31.0004 11.3677 30.9404 11.5202 30.8179L15.6869 27.4846C16.0469 27.1962 16.1044 26.6721 15.8169 26.3129C15.5302 25.9529 15.0052 25.8954 14.646 26.1829Z" fill="white" stroke="white" stroke-width="0.9"/>
<path d="M35.1667 36.0002H21.8333C21.3733 36.0002 21 36.3727 21 36.8336C21 37.2944 21.3733 37.6669 21.8333 37.6669H35.1667C35.6267 37.6669 36 37.2944 36 36.8336C36 36.3727 35.6267 36.0002 35.1667 36.0002Z" fill="white" stroke="white" stroke-width="0.9"/>
<path d="M14.646 34.5154L11.0619 37.3829L9.92271 36.2437C9.59688 35.9179 9.07021 35.9179 8.74438 36.2437C8.41854 36.5696 8.41854 37.0962 8.74438 37.4221L10.411 39.0887C10.5727 39.2504 10.786 39.3329 11.0002 39.3329C11.1835 39.3329 11.3677 39.2729 11.5202 39.1504L15.6869 35.8171C16.0469 35.5287 16.1044 35.0046 15.8169 34.6454C15.5302 34.2854 15.0052 34.2279 14.646 34.5154Z" fill="white" stroke="white" stroke-width="0.9"/>
</svg>
