<svg width="20" height="20" viewBox="0 0 20 20" fill="none" xmlns="http://www.w3.org/2000/svg">
<path d="M18.6221 16.7502H7.33385C7.15985 15.8952 6.40234 15.2502 5.49709 15.2502C4.59184 15.2502 3.83434 15.8952 3.66034 16.7502H1.37209C0.875594 16.7502 0.876344 17.5002 1.37209 17.5002H3.66034C3.83434 18.3552 4.59184 19.0002 5.49709 19.0002C6.40234 19.0002 7.15985 18.3552 7.33385 17.5002H18.6221C19.1186 17.5002 19.1178 16.7502 18.6221 16.7502ZM5.49709 18.2502C4.87684 18.2502 4.37209 17.7455 4.37209 17.1252C4.37209 16.505 4.87684 16.0002 5.49709 16.0002C6.11734 16.0002 6.62209 16.505 6.62209 17.1252C6.62209 17.7455 6.11734 18.2502 5.49709 18.2502Z" fill="#333333" stroke="#333333" stroke-width="0.5"/>
<path d="M18.6221 9.62476H16.3338C16.1598 8.76976 15.4023 8.12476 14.4971 8.12476C13.5918 8.12476 12.8343 8.76976 12.6603 9.62476H1.37209C0.875594 9.62476 0.876344 10.3748 1.37209 10.3748H12.6603C12.8343 11.2298 13.5918 11.8748 14.4971 11.8748C15.4023 11.8748 16.1598 11.2298 16.3338 10.3748H18.6221C19.1186 10.3748 19.1178 9.62476 18.6221 9.62476ZM14.4971 11.1248C13.8768 11.1248 13.3721 10.62 13.3721 9.99976C13.3721 9.37951 13.8768 8.87476 14.4971 8.87476C15.1173 8.87476 15.6221 9.37951 15.6221 9.99976C15.6221 10.62 15.1173 11.1248 14.4971 11.1248Z" fill="#333333" stroke="#333333" stroke-width="0.5"/>
<path d="M1.37209 3.25H7.41034C7.58434 4.105 8.34185 4.75 9.2471 4.75C10.1523 4.75 10.9098 4.105 11.0838 3.25H18.6221C19.1186 3.25 19.1178 2.5 18.6221 2.5H11.0838C10.9098 1.645 10.1523 1 9.2471 1C8.34185 1 7.58434 1.645 7.41034 2.5H1.37209C0.875594 2.5 0.876344 3.25 1.37209 3.25ZM9.2471 1.75C9.86735 1.75 10.3721 2.25475 10.3721 2.875C10.3721 3.49525 9.86735 4 9.2471 4C8.62684 4 8.1221 3.49525 8.1221 2.875C8.1221 2.25475 8.62684 1.75 9.2471 1.75Z" fill="#333333" stroke="#333333" stroke-width="0.5"/>
</svg>
