<svg width="65" height="52" viewBox="0 0 65 52" fill="none" xmlns="http://www.w3.org/2000/svg">
<path d="M63.3288 12.6438H16.7534C16.3752 12.6438 16.0685 12.9505 16.0685 13.3288V42.0959C16.0685 42.4742 16.3752 42.7808 16.7534 42.7808H45.2368L53.2555 50.7993C53.3864 50.9304 53.5616 51 53.7399 51C53.8282 51 53.9171 50.983 54.0018 50.9478C54.2578 50.8419 54.4247 50.5921 54.4247 50.3151V42.7808H63.3288C63.7071 42.7808 64.0137 42.4742 64.0137 42.0959V13.3288C64.0137 12.9505 63.7071 12.6438 63.3288 12.6438ZM62.6438 41.411H53.7397C53.3614 41.411 53.0548 41.7175 53.0548 42.0959V48.6615L46.0048 41.6116C45.8763 41.4832 45.7022 41.411 45.5205 41.411H17.4384V14.0137H62.6438V41.411ZM14.6986 30.4521C14.6986 30.8304 14.3919 31.137 14.0137 31.137H1.68493C1.30671 31.137 1 30.8304 1 30.4521V1.68493C1 1.30671 1.30671 1 1.68493 1H48.2603C48.6386 1 48.9452 1.30671 48.9452 1.68493V10.589C48.9452 10.9673 48.6386 11.274 48.2603 11.274C47.8819 11.274 47.5753 10.9673 47.5753 10.589V2.36986H2.36986V29.7671H14.0137C14.3919 29.7671 14.6986 30.0737 14.6986 30.4521Z" fill="white" stroke="white"/>
</svg>
