<svg width="18" height="20" viewBox="0 0 18 20" fill="none" xmlns="http://www.w3.org/2000/svg">
<path d="M12.1725 1H1V19H17.2V5.3758L12.1725 1ZM12.3745 2.0242L16.0233 5.2H12.3745V2.0242ZM1.68936 18.4V1.6H11.6851V5.8H16.5106V18.4H1.68936Z" fill="#333333" stroke="#333333" stroke-width="0.6"/>
<path d="M13.3002 10.54H8.5002C8.3346 10.54 8.2002 10.6741 8.2002 10.84C8.2002 11.0059 8.3346 11.14 8.5002 11.14H13.3002C13.4658 11.14 13.6002 11.0059 13.6002 10.84C13.6002 10.6741 13.4658 10.54 13.3002 10.54Z" fill="#333333" stroke="#333333" stroke-width="0.6"/>
<path d="M5.91277 10.0658L4.62247 11.0981L4.21237 10.688C4.09507 10.5707 3.90547 10.5707 3.78817 10.688C3.67087 10.8053 3.67087 10.9949 3.78817 11.1122L4.38817 11.7122C4.44637 11.7704 4.52317 11.8001 4.60027 11.8001C4.66627 11.8001 4.73257 11.7785 4.78747 11.7344L6.28747 10.5344C6.41707 10.4306 6.43777 10.2419 6.33427 10.1126C6.23107 9.98304 6.04207 9.96234 5.91277 10.0658Z" fill="#333333" stroke="#333333" stroke-width="0.6"/>
<path d="M13.3002 13.6001H8.5002C8.3346 13.6001 8.2002 13.7342 8.2002 13.9001C8.2002 14.066 8.3346 14.2001 8.5002 14.2001H13.3002C13.4658 14.2001 13.6002 14.066 13.6002 13.9001C13.6002 13.7342 13.4658 13.6001 13.3002 13.6001Z" fill="#333333" stroke="#333333" stroke-width="0.6"/>
<path d="M5.91277 13.0656L4.62247 14.0979L4.21237 13.6878C4.09507 13.5705 3.90547 13.5705 3.78817 13.6878C3.67087 13.8051 3.67087 13.9947 3.78817 14.112L4.38817 14.712C4.44637 14.7702 4.52317 14.7999 4.60027 14.7999C4.66627 14.7999 4.73257 14.7783 4.78747 14.7342L6.28747 13.5342C6.41707 13.4304 6.43777 13.2417 6.33427 13.1124C6.23107 12.9828 6.04207 12.9621 5.91277 13.0656Z" fill="#333333" stroke="#333333" stroke-width="0.6"/>
</svg>
