<svg width="20" height="20" viewBox="0 0 20 20" fill="none" xmlns="http://www.w3.org/2000/svg">
<path d="M12.5611 13.963C12.3718 13.8493 12.1776 13.735 11.9834 13.6229C12.029 13.2337 12.0291 12.84 11.9836 12.4516C12.1786 12.3391 12.3727 12.2248 12.561 12.1116C12.8781 11.9211 13.0103 11.519 12.8684 11.1763L12.8684 11.1763L12.4546 10.1772C12.3126 9.83465 11.9351 9.64371 11.5759 9.73318C11.3625 9.78631 11.1444 9.8428 10.9271 9.90109C10.6845 9.5941 10.4061 9.31577 10.0987 9.07301C10.157 8.85567 10.2135 8.63749 10.2667 8.42398C10.3561 8.065 10.1652 7.68727 9.82267 7.54534L8.82358 7.13151C8.48102 6.98955 8.07886 7.12164 7.88824 7.43882C7.77472 7.62775 7.66035 7.82199 7.54813 8.01655C7.15905 7.97088 6.76544 7.97078 6.37685 8.0163C6.26428 7.82115 6.14998 7.62698 6.03688 7.43882C5.84619 7.12171 5.44414 6.98959 5.10154 7.13151L4.10245 7.54534C3.75996 7.68724 3.56899 8.065 3.65846 8.42398C3.71172 8.63791 3.76818 8.85602 3.82637 9.0728C3.51941 9.31535 3.24104 9.59382 2.99832 9.9012C2.78049 9.84273 2.56231 9.78627 2.34922 9.73318C1.99013 9.64364 1.61248 9.83472 1.47055 10.1772L1.05679 11.1763C0.914932 11.5189 1.04709 11.921 1.36413 12.1115C1.5531 12.2251 1.74734 12.3394 1.94186 12.4517C1.89623 12.8407 1.89612 13.2343 1.94165 13.623C1.74695 13.7353 1.55282 13.8496 1.36406 13.963C1.04702 14.1536 0.914862 14.5556 1.05675 14.8983L1.47062 15.8974C1.61251 16.2399 1.99006 16.4309 2.34929 16.3414C2.56248 16.2883 2.7806 16.2318 2.99804 16.1735C3.24066 16.4804 3.51906 16.7587 3.82644 17.0015C3.76808 17.2191 3.71158 17.4373 3.65846 17.6506C3.56899 18.0095 3.75989 18.3873 4.10245 18.5292L5.10157 18.9431C5.19439 18.9815 5.29153 18.9998 5.38764 18.9998C5.64647 18.9998 5.89791 18.867 6.03702 18.6358C6.1497 18.4483 6.264 18.2541 6.37713 18.0581C6.76614 18.1037 7.15986 18.1038 7.54841 18.0583C7.66018 18.2521 7.77447 18.4462 7.88838 18.6358C8.079 18.9529 8.48105 19.085 8.82372 18.9431L9.82281 18.5293C10.1653 18.3874 10.3563 18.0096 10.2668 17.6507C10.214 17.4386 10.1575 17.2204 10.0989 17.0018C10.4058 16.7593 10.6842 16.4809 10.927 16.1735C11.1442 16.2317 11.3624 16.2882 11.576 16.3414C11.935 16.431 12.3127 16.24 12.4546 15.8974L12.8685 14.8983C13.0103 14.5557 12.8781 14.1536 12.5611 13.963ZM11.7269 15.5486C11.5217 15.4972 11.3125 15.4429 11.1045 15.3868C10.81 15.3076 10.4993 15.4112 10.3128 15.6508C10.0985 15.926 9.85048 16.1741 9.57566 16.3881C9.33634 16.5745 9.23295 16.8852 9.31223 17.1795C9.36858 17.3888 9.4229 17.5978 9.47398 17.8016L8.55562 18.1819C8.44639 17.9997 8.33701 17.8135 8.2301 17.6277C8.07798 17.3635 7.78519 17.2171 7.48422 17.2544C7.13859 17.2973 6.78776 17.2973 6.44168 17.2542C6.13986 17.2168 5.84732 17.3631 5.69523 17.6274C5.58702 17.8153 5.47761 18.0016 5.36957 18.1819L4.45121 17.8015C4.50257 17.5967 4.55693 17.3875 4.61304 17.1792C4.69231 16.8848 4.58871 16.574 4.34911 16.3875C4.07384 16.1732 3.82581 15.9252 3.61177 15.6504C3.42544 15.411 3.1148 15.3077 2.82039 15.3869C2.61216 15.443 2.40308 15.4973 2.19829 15.5487L1.8179 14.6303C1.99931 14.5216 2.1856 14.4122 2.37214 14.3048C2.63635 14.1527 2.78288 13.86 2.74547 13.5589C2.70248 13.2133 2.70258 12.8625 2.74558 12.5164C2.78313 12.2151 2.6367 11.922 2.37236 11.7699C2.18588 11.6625 1.99955 11.5531 1.81786 11.4442L2.19826 10.5258C2.40287 10.5771 2.61198 10.6315 2.8206 10.6876C3.11494 10.7669 3.42572 10.6633 3.61233 10.4237C3.82661 10.1484 4.07464 9.90035 4.34939 9.68639C4.58874 9.50002 4.69214 9.18934 4.61286 8.89494C4.55696 8.68738 4.50261 8.47833 4.4511 8.27288L5.36947 7.89252C5.47789 8.07343 5.5873 8.25969 5.69498 8.44676C5.84714 8.71097 6.14017 8.85771 6.44087 8.82006C6.78636 8.77706 7.13711 8.77706 7.48351 8.82023C7.78498 8.85778 8.07784 8.71118 8.22993 8.44697C8.33726 8.2605 8.4467 8.07417 8.55555 7.89252L9.47391 8.27288C9.42251 8.47795 9.36816 8.6871 9.31209 8.89526C9.23281 9.18966 9.33642 9.50045 9.57601 9.68695C9.85125 9.90123 10.0993 10.1492 10.3134 10.424C10.4997 10.6633 10.8102 10.7667 11.1048 10.6875C11.3129 10.6314 11.5219 10.5771 11.7268 10.5257L12.1072 11.4441C11.926 11.5527 11.7398 11.662 11.5529 11.7696C11.2887 11.9217 11.1422 12.2145 11.1796 12.5155C11.2226 12.861 11.2225 13.2118 11.1794 13.5581C11.142 13.8595 11.2885 14.1524 11.5527 14.3045C11.7389 14.4117 11.9252 14.5211 12.1072 14.6302L11.7269 15.5486Z" fill="#0054A5" stroke="#0054A5" stroke-width="0.1"/>
<path d="M9.49974 11.9864L9.49971 11.9864C8.92033 10.5876 7.31099 9.92088 5.91193 10.5003C4.51311 11.0798 3.8464 12.6892 4.42585 14.0881C4.70651 14.7658 5.23435 15.2935 5.91196 15.5742C6.25077 15.7145 6.60677 15.7847 6.96276 15.7847C7.31876 15.7847 7.67476 15.7145 8.01363 15.5742C9.41245 14.9948 10.0791 13.3853 9.49974 11.9864ZM7.70527 14.8298C7.22651 15.0281 6.69919 15.0281 6.22029 14.8298C5.74152 14.6315 5.36862 14.2586 5.17026 13.7798C4.76079 12.7914 5.23189 11.6541 6.22032 11.2447C6.46238 11.1444 6.71326 11.097 6.96027 11.097C7.72201 11.097 8.44617 11.5484 8.75537 12.2948C9.16477 13.2832 8.69367 14.4204 7.70527 14.8298Z" fill="#0054A5" stroke="#0054A5" stroke-width="0.1"/>
<path d="M18.4571 4.54858C18.318 4.52777 18.1751 4.50755 18.0313 4.48836C17.9588 4.24729 17.862 4.01357 17.7425 3.79159C17.8305 3.67645 17.9173 3.5611 18.0012 3.44779C18.1873 3.19603 18.1604 2.83898 17.9386 2.61728L17.3828 2.06159C17.161 1.83975 16.804 1.81286 16.5523 1.99908C16.4386 2.08321 16.3233 2.16995 16.2085 2.25766C15.9865 2.1382 15.7528 2.04138 15.5117 1.96885C15.4925 1.82499 15.4723 1.68215 15.4515 1.5431C15.4052 1.23351 15.1337 1 14.8201 1H14.0341C13.7204 1 13.449 1.23351 13.4027 1.54307C13.3819 1.68204 13.3617 1.82492 13.3425 1.96881C13.1013 2.04134 12.8676 2.13816 12.6457 2.25763C12.531 2.16988 12.4156 2.08311 12.3019 1.99905C12.0502 1.81282 11.6931 1.83972 11.4714 2.06152L10.9157 2.61718C10.6939 2.83894 10.6669 3.19603 10.8531 3.44782C10.9369 3.5611 11.0237 3.67648 11.1117 3.79159C10.9923 4.01353 10.8954 4.24722 10.8229 4.48836C10.6791 4.50759 10.5362 4.52777 10.3971 4.54858C10.0875 4.59492 9.854 4.86636 9.854 5.18007V5.966C9.854 6.27966 10.0874 6.55115 10.3971 6.59748C10.5362 6.61829 10.679 6.63851 10.8229 6.65771C10.8954 6.89881 10.9922 7.1325 11.1116 7.35448C11.0237 7.46951 10.9369 7.58482 10.853 7.69827C10.6669 7.94996 10.6938 8.30708 10.9156 8.52875L11.4713 9.08451C11.6931 9.30634 12.0501 9.3332 12.3019 9.14701C12.4156 9.06295 12.5309 8.97615 12.6456 8.88847C12.8676 9.00793 13.1014 9.10476 13.3424 9.17725C13.3616 9.32108 13.3818 9.46395 13.4026 9.60303C13.449 9.91262 13.7204 10.1461 14.0341 10.1461H14.8201C15.1337 10.1461 15.4052 9.91269 15.4515 9.603C15.4723 9.46392 15.4925 9.32108 15.5117 9.17721C15.7528 9.10476 15.9865 9.00786 16.2085 8.8884C16.3232 8.97615 16.4386 9.06292 16.5522 9.14701C16.8039 9.33324 17.1611 9.30634 17.3828 9.08454L17.9385 8.52885C18.1603 8.30708 18.1873 7.95 18.0011 7.69824C17.9172 7.58482 17.8304 7.46944 17.7425 7.35451C17.8619 7.13257 17.9588 6.89892 18.0313 6.65774C18.1751 6.63851 18.318 6.61833 18.457 6.59752C18.7667 6.55118 19.0002 6.27974 19.0002 5.96603V5.1801C19.0001 4.8664 18.7667 4.59492 18.4571 4.54858ZM18.2347 5.85662C18.1084 5.87494 17.9796 5.89273 17.8503 5.90957C17.5946 5.94293 17.3853 6.12441 17.3171 6.37185C17.2519 6.60877 17.1571 6.83739 17.0356 7.05136C16.9086 7.27471 16.9282 7.55111 17.0855 7.75562C17.1647 7.8587 17.2434 7.96244 17.3199 8.06496L16.919 8.46592C16.8162 8.38917 16.7124 8.31056 16.6095 8.23146C16.4051 8.07414 16.1287 8.05469 15.9053 8.1815C15.6913 8.30308 15.4627 8.39782 15.2259 8.46311C14.9783 8.53131 14.7968 8.74064 14.7636 8.99626C14.7467 9.12553 14.729 9.25442 14.7106 9.3807H14.1435C14.1252 9.25442 14.1075 9.12557 14.0906 8.9964C14.0572 8.74067 13.8758 8.53135 13.6283 8.46314C13.3914 8.39789 13.1629 8.30315 12.9488 8.18157C12.7254 8.05466 12.449 8.07417 12.2446 8.23146C12.1417 8.3106 12.038 8.38917 11.9351 8.46592L11.5342 8.06496C11.6107 7.96234 11.6893 7.85866 11.7687 7.75548C11.9259 7.55104 11.9454 7.27464 11.8185 7.05129C11.697 6.83732 11.6022 6.60866 11.537 6.37181C11.4688 6.12431 11.2595 5.94286 11.0038 5.9095C10.8745 5.89262 10.7456 5.87491 10.6194 5.85652V5.28951C10.7456 5.27119 10.8745 5.2534 11.0038 5.23656C11.2595 5.2032 11.4688 5.02172 11.5369 4.77429C11.6022 4.5374 11.6969 4.30878 11.8185 4.09478C11.9454 3.87143 11.9259 3.59499 11.7687 3.39055C11.6893 3.28733 11.6106 3.18362 11.5342 3.08117L11.9351 2.68021C12.0379 2.75696 12.1417 2.83557 12.2445 2.91464C12.4488 3.07196 12.7253 3.09158 12.9488 2.96463C13.1627 2.84309 13.3914 2.74835 13.6282 2.68302C13.8758 2.61482 14.0573 2.4055 14.0905 2.14987C14.1074 2.0206 14.1252 1.89175 14.1435 1.76547H14.7106C14.7289 1.89172 14.7467 2.02057 14.7635 2.14977C14.7969 2.4055 14.9783 2.61482 15.2258 2.68299C15.4627 2.74827 15.6914 2.84306 15.9053 2.96459C16.1287 3.09155 16.4052 3.07182 16.6095 2.91467C16.7124 2.83557 16.8161 2.75696 16.919 2.68021L17.3199 3.08117C17.2435 3.18366 17.1648 3.2874 17.0854 3.39066C16.9282 3.59506 16.9087 3.87146 17.0355 4.09481C17.1571 4.30885 17.2518 4.53751 17.3171 4.77432C17.3853 5.02183 17.5946 5.20327 17.8503 5.23663C17.9795 5.25351 18.1084 5.27126 18.2347 5.28962V5.85662Z" fill="#0054A5" stroke="#0054A5" stroke-width="0.1"/>
<path d="M14.4272 3.94141C13.5277 3.94141 12.7959 4.67319 12.7959 5.57271C12.7959 6.47227 13.5277 7.20406 14.4272 7.20406C15.3267 7.20406 16.0585 6.47227 16.0585 5.57271C16.0585 4.67319 15.3267 3.94141 14.4272 3.94141ZM14.4272 6.47888C13.9276 6.47888 13.521 6.07236 13.521 5.57268C13.521 5.073 13.9276 4.66651 14.4272 4.66651C14.9269 4.66651 15.3333 5.07303 15.3334 5.57268C15.3334 6.07236 14.9269 6.47888 14.4272 6.47888Z" fill="#0054A5" stroke="#0054A5" stroke-width="0.1"/>
</svg>
