<svg width="16" height="17" viewBox="0 0 16 17" fill="none" xmlns="http://www.w3.org/2000/svg">
<path d="M15.5289 9.56592L14.8421 9.00059C14.3717 8.61334 14.3726 7.89358 14.8422 7.5071L15.5289 6.94177C16.0176 6.53943 16.1426 5.84953 15.8261 5.30126L14.4701 2.95259C14.1535 2.40435 13.4934 2.1677 12.9007 2.38971L12.0678 2.70178C11.4972 2.91548 10.8743 2.55505 10.7743 1.95503L10.6281 1.07761C10.524 0.45322 9.98906 0 9.35602 0H6.64402C6.01096 0 5.47594 0.45322 5.3719 1.07764L5.22565 1.95503C5.12548 2.55611 4.50173 2.91512 3.93225 2.70181L3.09929 2.38971C2.50659 2.1677 1.84654 2.40438 1.52996 2.95259L0.173975 5.30123C-0.142541 5.84943 -0.0175723 6.53937 0.471178 6.94174L1.15789 7.50707C1.62836 7.89435 1.62743 8.61405 1.15789 9.00056L0.471146 9.56589C-0.0175723 9.96826 -0.142573 10.6582 0.173943 11.2064L1.52996 13.5551C1.84651 14.1033 2.50643 14.34 3.09929 14.1179L3.93222 13.8059C4.50286 13.5921 5.12564 13.9528 5.22562 14.5526L5.37187 15.43C5.47594 16.0545 6.01096 16.5077 6.64399 16.5077H9.35599C9.98902 16.5077 10.524 16.0545 10.6281 15.43L10.7743 14.5527C10.8744 13.9518 11.4982 13.5925 12.0677 13.8059L12.9007 14.118C13.4936 14.34 14.1535 14.1033 14.4701 13.5551L15.8261 11.2064C16.1426 10.6582 16.0176 9.96826 15.5289 9.56592ZM13.3532 12.9103L12.5202 12.5982C11.1887 12.0994 9.73551 12.9409 9.50224 14.3406L9.35602 15.218H6.64402L6.49778 14.3406C6.26406 12.9382 4.80877 12.1004 3.4798 12.5982L2.64684 12.9103L1.29086 10.5616L1.97757 9.99628C3.07536 9.09255 3.07307 7.41328 1.97757 6.51141L1.29086 5.94609L2.64687 3.59742L3.4798 3.90949C4.81138 4.40826 6.26451 3.56676 6.49778 2.16705L6.64399 1.28966H9.35599L9.50221 2.16705C9.73596 3.56963 11.1913 4.40723 12.5202 3.90949L13.3531 3.59742L14.7094 5.94577C14.7094 5.94577 14.7094 5.94586 14.7091 5.94606L14.0224 6.51138C12.9247 7.41505 12.9268 9.09435 14.0224 9.99625L14.7091 10.5616L13.3532 12.9103ZM8.00001 5.07267C6.2459 5.07267 4.81883 6.49974 4.81883 8.25385C4.81883 10.0079 6.2459 11.435 8.00001 11.435C9.75411 11.435 11.1812 10.0079 11.1812 8.25385C11.1812 6.49974 9.75411 5.07267 8.00001 5.07267ZM8.00001 10.1454C6.95702 10.1454 6.10849 9.29683 6.10849 8.25385C6.10849 7.21086 6.95702 6.36233 8.00001 6.36233C9.04299 6.36233 9.89152 7.21086 9.89152 8.25385C9.89152 9.29683 9.04299 10.1454 8.00001 10.1454Z" fill="#fff"/>
</svg>
