<svg width="25" height="20" viewBox="0 0 25 20" fill="none" xmlns="http://www.w3.org/2000/svg">
<path d="M23.4384 5.19178H6.67123C6.53507 5.19178 6.42466 5.3022 6.42466 5.43836V15.7945C6.42466 15.9307 6.53507 16.0411 6.67123 16.0411H16.9253L19.812 18.9278C19.8591 18.9749 19.9222 19 19.9863 19C20.0182 19 20.0502 18.9939 20.0806 18.9812C20.1728 18.9431 20.2329 18.8531 20.2329 18.7534V16.0411H23.4384C23.5746 16.0411 23.6849 15.9307 23.6849 15.7945V5.43836C23.6849 5.3022 23.5746 5.19178 23.4384 5.19178ZM23.1918 15.5479H19.9863C19.8501 15.5479 19.7397 15.6583 19.7397 15.7945V18.1581L17.2017 15.6202C17.1555 15.5739 17.0928 15.5479 17.0274 15.5479H6.91781V5.68493H23.1918V15.5479ZM5.93151 11.6027C5.93151 11.7389 5.82109 11.8493 5.68493 11.8493H1.24658C1.11042 11.8493 1 11.7389 1 11.6027V1.24658C1 1.11042 1.11042 1 1.24658 1H18.0137C18.1499 1 18.2603 1.11042 18.2603 1.24658V4.45205C18.2603 4.58821 18.1499 4.69863 18.0137 4.69863C17.8775 4.69863 17.7671 4.58821 17.7671 4.45205V1.49315H1.49315V11.3562H5.68493C5.82109 11.3562 5.93151 11.4665 5.93151 11.6027Z" fill="#333333" stroke="#333333" stroke-width="0.7"/>
</svg>
