<svg width="9" height="10" viewBox="0 0 9 10" fill="none" xmlns="http://www.w3.org/2000/svg">
<path d="M3.848 1.59374C3.97003 1.70495 3.97003 1.88527 3.848 1.99648C3.72596 2.10769 3.52809 2.10769 3.40606 1.99648L2.28224 0.972314V8.82843C2.28224 8.98572 2.14234 9.11321 1.96974 9.11321C1.79714 9.11321 1.65724 8.98572 1.65724 8.82843V0.972349L0.533436 1.99648C0.47242 2.05209 0.392421 2.07989 0.312479 2.07991C0.23248 2.07991 0.152539 2.0521 0.0915231 1.99648C-0.0305077 1.88527 -0.0305077 1.70495 0.0915231 1.59374L1.74882 0.0834205C1.87087 -0.0278068 2.06874 -0.0278068 2.19075 0.0834205L3.848 1.59374ZM8.5355 7.11673C8.41347 7.00552 8.2156 7.00552 8.09357 7.11673L6.96976 8.14088V0.284801C6.96976 0.127509 6.82986 1.33527e-05 6.65726 1.33527e-05C6.48467 1.33527e-05 6.34476 0.127509 6.34476 0.284801V8.14091L5.22096 7.11673C5.09897 7.00552 4.9011 7.0055 4.77903 7.11673C4.657 7.22794 4.65698 7.40826 4.77903 7.51947L6.43629 9.02981C6.49488 9.08322 6.57437 9.11323 6.65724 9.11323C6.74011 9.11323 6.81961 9.08321 6.8782 9.02981L8.5355 7.51947C8.65753 7.40826 8.65753 7.22794 8.5355 7.11673Z" fill="#8094AE"/>
</svg>
