<svg width="125" height="13" viewBox="0 0 125 13" fill="none" xmlns="http://www.w3.org/2000/svg">
<path d="M5.572 10.126C4.57333 10.126 3.71933 9.92067 3.01 9.51C2.30067 9.09933 1.75467 8.516 1.372 7.76C0.998667 6.99467 0.812 6.094 0.812 5.058C0.812 4.28333 0.919333 3.588 1.134 2.972C1.34867 2.34667 1.65667 1.81467 2.058 1.376C2.46867 0.927999 2.968 0.587333 3.556 0.354C4.15333 0.120666 4.82533 0.00399935 5.572 0.00399935C6.12267 0.00399935 6.65 0.0786662 7.154 0.228C7.66733 0.377333 8.11067 0.592 8.484 0.872C8.64267 0.974666 8.74533 1.10067 8.792 1.25C8.848 1.39 8.85733 1.52533 8.82 1.656C8.792 1.78667 8.73133 1.89867 8.638 1.992C8.54467 2.076 8.42333 2.12267 8.274 2.132C8.134 2.14133 7.98 2.09 7.812 1.978C7.504 1.74467 7.16333 1.572 6.79 1.46C6.41667 1.348 6.02467 1.292 5.614 1.292C4.90467 1.292 4.30733 1.44133 3.822 1.74C3.33667 2.02933 2.968 2.454 2.716 3.014C2.464 3.574 2.338 4.25533 2.338 5.058C2.338 5.86067 2.464 6.54667 2.716 7.116C2.968 7.676 3.33667 8.10533 3.822 8.404C4.30733 8.69333 4.90467 8.838 5.614 8.838C6.02467 8.838 6.41667 8.782 6.79 8.67C7.17267 8.54867 7.532 8.37133 7.868 8.138C8.036 8.03533 8.18533 7.98867 8.316 7.998C8.456 8.00733 8.57267 8.054 8.666 8.138C8.75933 8.222 8.82 8.32933 8.848 8.46C8.88533 8.58133 8.88067 8.712 8.834 8.852C8.79667 8.98267 8.708 9.09467 8.568 9.188C8.18533 9.496 7.73267 9.72933 7.21 9.888C6.68733 10.0467 6.14133 10.126 5.572 10.126ZM12.9308 10.126C12.2401 10.126 11.6428 9.98133 11.1388 9.692C10.6441 9.40267 10.2568 8.992 9.97675 8.46C9.69675 7.928 9.55675 7.30267 9.55675 6.584C9.55675 6.03333 9.63608 5.54333 9.79475 5.114C9.95342 4.68467 10.1774 4.316 10.4668 4.008C10.7654 3.69067 11.1201 3.45267 11.5308 3.294C11.9508 3.126 12.4174 3.042 12.9308 3.042C13.6121 3.042 14.2001 3.18667 14.6948 3.476C15.1988 3.76533 15.5908 4.176 15.8708 4.708C16.1508 5.23067 16.2908 5.856 16.2908 6.584C16.2908 7.12533 16.2114 7.61533 16.0528 8.054C15.8941 8.49267 15.6654 8.866 15.3668 9.174C15.0774 9.482 14.7228 9.72 14.3028 9.888C13.8921 10.0467 13.4348 10.126 12.9308 10.126ZM12.9308 9.034C13.3134 9.034 13.6494 8.94067 13.9388 8.754C14.2281 8.56733 14.4521 8.292 14.6108 7.928C14.7788 7.564 14.8628 7.116 14.8628 6.584C14.8628 5.78133 14.6854 5.17467 14.3308 4.764C13.9761 4.35333 13.5094 4.148 12.9308 4.148C12.5388 4.148 12.1981 4.24133 11.9088 4.428C11.6194 4.60533 11.3908 4.876 11.2228 5.24C11.0641 5.604 10.9848 6.052 10.9848 6.584C10.9848 7.37733 11.1621 7.984 11.5168 8.404C11.8714 8.824 12.3428 9.034 12.9308 9.034ZM18.5788 10.098C18.3548 10.098 18.1821 10.0373 18.0608 9.916C17.9394 9.78533 17.8788 9.608 17.8788 9.384V3.784C17.8788 3.55067 17.9394 3.37333 18.0608 3.252C18.1821 3.13067 18.3501 3.07 18.5648 3.07C18.7888 3.07 18.9568 3.13067 19.0688 3.252C19.1901 3.37333 19.2508 3.55067 19.2508 3.784V4.876L19.0968 4.624C19.3021 4.10133 19.6241 3.70933 20.0628 3.448C20.5014 3.17733 21.0054 3.042 21.5748 3.042C22.1161 3.042 22.5641 3.14467 22.9188 3.35C23.2828 3.546 23.5534 3.84933 23.7308 4.26C23.9081 4.66133 23.9968 5.17 23.9968 5.786V9.384C23.9968 9.608 23.9361 9.78533 23.8148 9.916C23.6934 10.0373 23.5208 10.098 23.2968 10.098C23.0634 10.098 22.8861 10.0373 22.7648 9.916C22.6434 9.78533 22.5828 9.608 22.5828 9.384V5.87C22.5828 5.282 22.4661 4.85267 22.2328 4.582C22.0088 4.31133 21.6541 4.176 21.1688 4.176C20.5994 4.176 20.1421 4.35333 19.7968 4.708C19.4608 5.06267 19.2928 5.53867 19.2928 6.136V9.384C19.2928 9.86 19.0548 10.098 18.5788 10.098ZM28.8572 10.126C28.2972 10.126 27.8258 10.028 27.4432 9.832C27.0605 9.636 26.7758 9.34667 26.5892 8.964C26.4025 8.58133 26.3092 8.11467 26.3092 7.564V4.26H25.4692C25.2825 4.26 25.1378 4.21333 25.0352 4.12C24.9325 4.01733 24.8812 3.882 24.8812 3.714C24.8812 3.53667 24.9325 3.40133 25.0352 3.308C25.1378 3.21467 25.2825 3.168 25.4692 3.168H26.3092V1.726C26.3092 1.49267 26.3698 1.31533 26.4912 1.194C26.6218 1.07267 26.7992 1.012 27.0232 1.012C27.2472 1.012 27.4198 1.07267 27.5412 1.194C27.6625 1.31533 27.7232 1.49267 27.7232 1.726V3.168H29.3612C29.5478 3.168 29.6925 3.21467 29.7952 3.308C29.8978 3.40133 29.9492 3.53667 29.9492 3.714C29.9492 3.882 29.8978 4.01733 29.7952 4.12C29.6925 4.21333 29.5478 4.26 29.3612 4.26H27.7232V7.452C27.7232 7.94667 27.8258 8.32 28.0312 8.572C28.2458 8.824 28.5912 8.95 29.0672 8.95C29.2352 8.95 29.3798 8.936 29.5012 8.908C29.6318 8.87067 29.7392 8.84733 29.8232 8.838C29.9258 8.838 30.0098 8.87533 30.0752 8.95C30.1405 9.01533 30.1732 9.146 30.1732 9.342C30.1732 9.482 30.1452 9.61267 30.0892 9.734C30.0425 9.85533 29.9538 9.93467 29.8232 9.972C29.7112 10.0093 29.5572 10.042 29.3612 10.07C29.1745 10.1073 29.0065 10.126 28.8572 10.126ZM31.7725 10.098C31.5391 10.098 31.3618 10.0373 31.2405 9.916C31.1191 9.78533 31.0585 9.608 31.0585 9.384V3.784C31.0585 3.55067 31.1191 3.37333 31.2405 3.252C31.3618 3.13067 31.5298 3.07 31.7445 3.07C31.9685 3.07 32.1365 3.13067 32.2485 3.252C32.3698 3.37333 32.4305 3.55067 32.4305 3.784V4.806H32.2905C32.4398 4.246 32.7151 3.82133 33.1165 3.532C33.5178 3.24267 34.0311 3.07467 34.6565 3.028C34.8245 3.01867 34.9551 3.06067 35.0485 3.154C35.1511 3.24733 35.2071 3.392 35.2165 3.588C35.2351 3.784 35.1931 3.94267 35.0905 4.064C34.9878 4.176 34.8291 4.24133 34.6145 4.26L34.3485 4.288C33.7418 4.344 33.2798 4.53533 32.9625 4.862C32.6451 5.18867 32.4865 5.63667 32.4865 6.206V9.384C32.4865 9.608 32.4258 9.78533 32.3045 9.916C32.1925 10.0373 32.0151 10.098 31.7725 10.098ZM38.3968 10.126C37.9208 10.126 37.4914 10.0327 37.1088 9.846C36.7354 9.65933 36.4414 9.40733 36.2268 9.09C36.0121 8.77267 35.9048 8.41333 35.9048 8.012C35.9048 7.508 36.0308 7.11133 36.2828 6.822C36.5441 6.52333 36.9688 6.31333 37.5568 6.192C38.1541 6.06133 38.9568 5.996 39.9648 5.996H40.6228V6.864H39.9788C39.3068 6.864 38.7748 6.89667 38.3828 6.962C37.9908 7.02733 37.7108 7.13933 37.5428 7.298C37.3841 7.44733 37.3048 7.65733 37.3048 7.928C37.3048 8.28267 37.4261 8.572 37.6688 8.796C37.9114 9.01067 38.2474 9.118 38.6768 9.118C39.0221 9.118 39.3254 9.03867 39.5868 8.88C39.8481 8.712 40.0534 8.488 40.2028 8.208C40.3614 7.928 40.4408 7.606 40.4408 7.242V5.632C40.4408 5.1 40.3288 4.71733 40.1048 4.484C39.8808 4.25067 39.5121 4.134 38.9988 4.134C38.7001 4.134 38.3874 4.17133 38.0608 4.246C37.7434 4.32067 37.4121 4.44667 37.0667 4.624C36.9081 4.69867 36.7728 4.722 36.6608 4.694C36.5488 4.666 36.4601 4.60533 36.3948 4.512C36.3294 4.40933 36.2921 4.302 36.2828 4.19C36.2828 4.06867 36.3108 3.952 36.3668 3.84C36.4321 3.728 36.5394 3.644 36.6888 3.588C37.0994 3.392 37.5054 3.252 37.9068 3.168C38.3081 3.084 38.6861 3.042 39.0408 3.042C39.6661 3.042 40.1794 3.14 40.5808 3.336C40.9914 3.532 41.2948 3.83067 41.4908 4.232C41.6868 4.63333 41.7848 5.15133 41.7848 5.786V9.384C41.7848 9.608 41.7288 9.78533 41.6168 9.916C41.5048 10.0373 41.3414 10.098 41.1268 10.098C40.9214 10.098 40.7581 10.0373 40.6368 9.916C40.5154 9.78533 40.4548 9.608 40.4548 9.384V8.474H40.5808C40.5061 8.81933 40.3661 9.118 40.1608 9.37C39.9648 9.61267 39.7174 9.79933 39.4188 9.93C39.1201 10.0607 38.7794 10.126 38.3968 10.126ZM46.7423 10.126C46.0423 10.126 45.4356 9.98133 44.9223 9.692C44.4183 9.39333 44.0263 8.978 43.7463 8.446C43.4663 7.90467 43.3263 7.27 43.3263 6.542C43.3263 6.00067 43.4056 5.51533 43.5643 5.086C43.7229 4.64733 43.9469 4.27867 44.2363 3.98C44.5349 3.68133 44.8943 3.45267 45.3143 3.294C45.7436 3.126 46.2196 3.042 46.7423 3.042C47.0689 3.042 47.4096 3.09333 47.7643 3.196C48.1283 3.28933 48.4643 3.448 48.7723 3.672C48.8936 3.74667 48.9683 3.84 48.9963 3.952C49.0336 4.05467 49.0383 4.162 49.0103 4.274C48.9916 4.386 48.9403 4.484 48.8563 4.568C48.7816 4.64267 48.6883 4.68933 48.5763 4.708C48.4643 4.71733 48.3429 4.68467 48.2123 4.61C47.9883 4.45133 47.7596 4.33933 47.5263 4.274C47.2929 4.19933 47.0689 4.162 46.8543 4.162C46.5183 4.162 46.2196 4.218 45.9583 4.33C45.7063 4.43267 45.4916 4.58667 45.3143 4.792C45.1369 4.988 45.0016 5.23533 44.9083 5.534C44.8243 5.83267 44.7823 6.17333 44.7823 6.556C44.7823 7.32133 44.9596 7.92333 45.3143 8.362C45.6783 8.79133 46.1916 9.006 46.8543 9.006C47.0689 9.006 47.2929 8.97333 47.5263 8.908C47.7596 8.84267 47.9883 8.73067 48.2123 8.572C48.3429 8.49733 48.4643 8.46933 48.5763 8.488C48.6883 8.50667 48.7769 8.558 48.8423 8.642C48.9169 8.71667 48.9636 8.81 48.9823 8.922C49.0103 9.02467 49.0056 9.132 48.9683 9.244C48.9309 9.356 48.8516 9.44933 48.7303 9.524C48.4316 9.73867 48.1049 9.89267 47.7503 9.986C47.4049 10.0793 47.0689 10.126 46.7423 10.126ZM53.1931 10.126C52.6331 10.126 52.1618 10.028 51.7791 9.832C51.3964 9.636 51.1118 9.34667 50.9251 8.964C50.7384 8.58133 50.6451 8.11467 50.6451 7.564V4.26H49.8051C49.6184 4.26 49.4738 4.21333 49.3711 4.12C49.2684 4.01733 49.2171 3.882 49.2171 3.714C49.2171 3.53667 49.2684 3.40133 49.3711 3.308C49.4738 3.21467 49.6184 3.168 49.8051 3.168H50.6451V1.726C50.6451 1.49267 50.7058 1.31533 50.8271 1.194C50.9578 1.07267 51.1351 1.012 51.3591 1.012C51.5831 1.012 51.7558 1.07267 51.8771 1.194C51.9984 1.31533 52.0591 1.49267 52.0591 1.726V3.168H53.6971C53.8838 3.168 54.0284 3.21467 54.1311 3.308C54.2338 3.40133 54.2851 3.53667 54.2851 3.714C54.2851 3.882 54.2338 4.01733 54.1311 4.12C54.0284 4.21333 53.8838 4.26 53.6971 4.26H52.0591V7.452C52.0591 7.94667 52.1618 8.32 52.3671 8.572C52.5818 8.824 52.9271 8.95 53.4031 8.95C53.5711 8.95 53.7158 8.936 53.8371 8.908C53.9678 8.87067 54.0751 8.84733 54.1591 8.838C54.2618 8.838 54.3458 8.87533 54.4111 8.95C54.4764 9.01533 54.5091 9.146 54.5091 9.342C54.5091 9.482 54.4811 9.61267 54.4251 9.734C54.3784 9.85533 54.2898 9.93467 54.1591 9.972C54.0471 10.0093 53.8931 10.042 53.6971 10.07C53.5104 10.1073 53.3424 10.126 53.1931 10.126ZM62.3758 10.098C62.1425 10.098 61.9605 10.0327 61.8298 9.902C61.7085 9.77133 61.6478 9.58933 61.6478 9.356V1.348H58.6798C58.4838 1.348 58.3298 1.29667 58.2178 1.194C58.1058 1.082 58.0498 0.927999 58.0498 0.731999C58.0498 0.535999 58.1058 0.386666 58.2178 0.284C58.3298 0.181333 58.4838 0.129999 58.6798 0.129999H66.0578C66.2631 0.129999 66.4218 0.181333 66.5338 0.284C66.6458 0.386666 66.7018 0.535999 66.7018 0.731999C66.7018 0.927999 66.6458 1.082 66.5338 1.194C66.4218 1.29667 66.2631 1.348 66.0578 1.348H63.0898V9.356C63.0898 9.58933 63.0291 9.77133 62.9078 9.902C62.7958 10.0327 62.6185 10.098 62.3758 10.098ZM69.7703 10.126C69.0236 10.126 68.3796 9.986 67.8383 9.706C67.3063 9.41667 66.891 9.01067 66.5923 8.488C66.303 7.956 66.1583 7.326 66.1583 6.598C66.1583 5.88867 66.303 5.268 66.5923 4.736C66.8816 4.204 67.2783 3.78867 67.7823 3.49C68.2863 3.19133 68.8603 3.042 69.5043 3.042C69.9803 3.042 70.405 3.12133 70.7783 3.28C71.1516 3.42933 71.469 3.65333 71.7303 3.952C72.001 4.24133 72.2016 4.596 72.3323 5.016C72.4723 5.436 72.5423 5.90733 72.5423 6.43C72.5423 6.58867 72.4956 6.71 72.4023 6.794C72.309 6.86867 72.169 6.906 71.9823 6.906H67.2783V6.038H71.5903L71.3523 6.234C71.3523 5.76733 71.2823 5.37067 71.1423 5.044C71.0116 4.71733 70.811 4.47 70.5403 4.302C70.279 4.12467 69.9523 4.036 69.5603 4.036C69.1216 4.036 68.7483 4.13867 68.4403 4.344C68.1416 4.54933 67.913 4.834 67.7543 5.198C67.5956 5.562 67.5163 5.98667 67.5163 6.472V6.556C67.5163 7.37733 67.7076 7.998 68.0903 8.418C68.4823 8.82867 69.047 9.034 69.7843 9.034C70.0643 9.034 70.3583 8.99667 70.6663 8.922C70.9836 8.84733 71.2823 8.72133 71.5623 8.544C71.721 8.45067 71.861 8.40867 71.9823 8.418C72.113 8.42733 72.2156 8.46933 72.2903 8.544C72.3743 8.61867 72.4256 8.712 72.4443 8.824C72.463 8.936 72.4443 9.05267 72.3883 9.174C72.3323 9.286 72.2343 9.38867 72.0943 9.482C71.777 9.69667 71.4083 9.86 70.9883 9.972C70.5683 10.0747 70.1623 10.126 69.7703 10.126ZM74.8118 10.098C74.5878 10.098 74.4152 10.0373 74.2938 9.916C74.1725 9.78533 74.1118 9.608 74.1118 9.384V3.784C74.1118 3.55067 74.1725 3.37333 74.2938 3.252C74.4152 3.13067 74.5832 3.07 74.7978 3.07C75.0218 3.07 75.1898 3.13067 75.3018 3.252C75.4232 3.37333 75.4838 3.55067 75.4838 3.784V4.932L75.3298 4.624C75.5165 4.12933 75.8058 3.742 76.1978 3.462C76.5898 3.182 77.0612 3.042 77.6118 3.042C78.1812 3.042 78.6432 3.17733 78.9978 3.448C79.3525 3.71867 79.5952 4.134 79.7258 4.694H79.5298C79.7072 4.18067 80.0105 3.77933 80.4398 3.49C80.8692 3.19133 81.3685 3.042 81.9378 3.042C82.4605 3.042 82.8898 3.14467 83.2258 3.35C83.5618 3.546 83.8138 3.84933 83.9818 4.26C84.1498 4.66133 84.2338 5.17 84.2338 5.786V9.384C84.2338 9.608 84.1685 9.78533 84.0378 9.916C83.9165 10.0373 83.7438 10.098 83.5198 10.098C83.2958 10.098 83.1232 10.0373 83.0018 9.916C82.8805 9.78533 82.8198 9.608 82.8198 9.384V5.856C82.8198 5.27733 82.7172 4.85267 82.5118 4.582C82.3158 4.31133 81.9892 4.176 81.5318 4.176C81.0185 4.176 80.6125 4.35333 80.3138 4.708C80.0152 5.06267 79.8658 5.55267 79.8658 6.178V9.384C79.8658 9.608 79.8052 9.78533 79.6838 9.916C79.5625 10.0373 79.3898 10.098 79.1658 10.098C78.9418 10.098 78.7645 10.0373 78.6338 9.916C78.5125 9.78533 78.4518 9.608 78.4518 9.384V5.856C78.4518 5.27733 78.3538 4.85267 78.1578 4.582C77.9618 4.31133 77.6352 4.176 77.1778 4.176C76.6645 4.176 76.2585 4.35333 75.9598 4.708C75.6705 5.06267 75.5258 5.55267 75.5258 6.178V9.384C75.5258 9.86 75.2878 10.098 74.8118 10.098ZM86.9108 12.618C86.6868 12.618 86.5141 12.5573 86.3928 12.436C86.2715 12.3147 86.2108 12.1373 86.2108 11.904V3.784C86.2108 3.55067 86.2715 3.37333 86.3928 3.252C86.5141 3.13067 86.6821 3.07 86.8968 3.07C87.1208 3.07 87.2935 3.13067 87.4148 3.252C87.5361 3.37333 87.5968 3.55067 87.5968 3.784V5.002L87.4428 4.708C87.5921 4.204 87.8861 3.80267 88.3248 3.504C88.7635 3.196 89.2815 3.042 89.8788 3.042C90.4855 3.042 91.0128 3.18667 91.4608 3.476C91.9181 3.76533 92.2681 4.17133 92.5108 4.694C92.7628 5.21667 92.8888 5.84667 92.8888 6.584C92.8888 7.30267 92.7628 7.93267 92.5108 8.474C92.2681 9.006 91.9228 9.41667 91.4748 9.706C91.0268 9.986 90.4948 10.126 89.8788 10.126C89.2908 10.126 88.7775 9.97667 88.3388 9.678C87.9001 9.37933 87.6061 8.98267 87.4568 8.488H87.6248V11.904C87.6248 12.1373 87.5595 12.3147 87.4288 12.436C87.3075 12.5573 87.1348 12.618 86.9108 12.618ZM89.5288 9.034C89.9208 9.034 90.2615 8.94067 90.5508 8.754C90.8401 8.56733 91.0641 8.292 91.2228 7.928C91.3815 7.564 91.4608 7.116 91.4608 6.584C91.4608 5.78133 91.2835 5.17467 90.9288 4.764C90.5835 4.35333 90.1168 4.148 89.5288 4.148C89.1461 4.148 88.8055 4.24133 88.5068 4.428C88.2175 4.60533 87.9935 4.876 87.8348 5.24C87.6761 5.604 87.5968 6.052 87.5968 6.584C87.5968 7.37733 87.7741 7.984 88.1288 8.404C88.4835 8.824 88.9501 9.034 89.5288 9.034ZM96.6803 10.126C95.9523 10.126 95.4016 9.916 95.0283 9.496C94.6643 9.06667 94.4823 8.45067 94.4823 7.648V0.746C94.4823 0.512666 94.5429 0.335333 94.6643 0.213999C94.7856 0.0926663 94.9583 0.0319998 95.1823 0.0319998C95.4063 0.0319998 95.5789 0.0926663 95.7003 0.213999C95.8309 0.335333 95.8963 0.512666 95.8963 0.746V7.564C95.8963 8.03067 95.9896 8.38067 96.1763 8.614C96.3723 8.838 96.6523 8.95 97.0163 8.95C97.1003 8.95 97.1749 8.95 97.2403 8.95C97.3056 8.94067 97.3709 8.93133 97.4363 8.922C97.5483 8.91267 97.6276 8.94533 97.6743 9.02C97.7209 9.08533 97.7443 9.22533 97.7443 9.44C97.7443 9.636 97.7023 9.79 97.6183 9.902C97.5343 10.0047 97.3989 10.07 97.2123 10.098C97.1283 10.1073 97.0396 10.112 96.9463 10.112C96.8529 10.1213 96.7643 10.126 96.6803 10.126ZM100.946 10.126C100.47 10.126 100.04 10.0327 99.6576 9.846C99.2842 9.65933 98.9902 9.40733 98.7756 9.09C98.5609 8.77267 98.4536 8.41333 98.4536 8.012C98.4536 7.508 98.5796 7.11133 98.8316 6.822C99.0929 6.52333 99.5176 6.31333 100.106 6.192C100.703 6.06133 101.506 5.996 102.514 5.996H103.172V6.864H102.528C101.856 6.864 101.324 6.89667 100.932 6.962C100.54 7.02733 100.26 7.13933 100.092 7.298C99.9329 7.44733 99.8536 7.65733 99.8536 7.928C99.8536 8.28267 99.9749 8.572 100.218 8.796C100.46 9.01067 100.796 9.118 101.226 9.118C101.571 9.118 101.874 9.03867 102.136 8.88C102.397 8.712 102.602 8.488 102.752 8.208C102.91 7.928 102.99 7.606 102.99 7.242V5.632C102.99 5.1 102.878 4.71733 102.654 4.484C102.43 4.25067 102.061 4.134 101.548 4.134C101.249 4.134 100.936 4.17133 100.61 4.246C100.292 4.32067 99.9609 4.44667 99.6156 4.624C99.4569 4.69867 99.3216 4.722 99.2096 4.694C99.0976 4.666 99.0089 4.60533 98.9436 4.512C98.8782 4.40933 98.8409 4.302 98.8316 4.19C98.8316 4.06867 98.8596 3.952 98.9156 3.84C98.9809 3.728 99.0882 3.644 99.2376 3.588C99.6482 3.392 100.054 3.252 100.456 3.168C100.857 3.084 101.235 3.042 101.59 3.042C102.215 3.042 102.728 3.14 103.13 3.336C103.54 3.532 103.844 3.83067 104.04 4.232C104.236 4.63333 104.334 5.15133 104.334 5.786V9.384C104.334 9.608 104.278 9.78533 104.166 9.916C104.054 10.0373 103.89 10.098 103.676 10.098C103.47 10.098 103.307 10.0373 103.186 9.916C103.064 9.78533 103.004 9.608 103.004 9.384V8.474H103.13C103.055 8.81933 102.915 9.118 102.71 9.37C102.514 9.61267 102.266 9.79933 101.968 9.93C101.669 10.0607 101.328 10.126 100.946 10.126ZM109.193 10.126C108.633 10.126 108.162 10.028 107.779 9.832C107.396 9.636 107.112 9.34667 106.925 8.964C106.738 8.58133 106.645 8.11467 106.645 7.564V4.26H105.805C105.618 4.26 105.474 4.21333 105.371 4.12C105.268 4.01733 105.217 3.882 105.217 3.714C105.217 3.53667 105.268 3.40133 105.371 3.308C105.474 3.21467 105.618 3.168 105.805 3.168H106.645V1.726C106.645 1.49267 106.706 1.31533 106.827 1.194C106.958 1.07267 107.135 1.012 107.359 1.012C107.583 1.012 107.756 1.07267 107.877 1.194C107.998 1.31533 108.059 1.49267 108.059 1.726V3.168H109.697C109.884 3.168 110.028 3.21467 110.131 3.308C110.234 3.40133 110.285 3.53667 110.285 3.714C110.285 3.882 110.234 4.01733 110.131 4.12C110.028 4.21333 109.884 4.26 109.697 4.26H108.059V7.452C108.059 7.94667 108.162 8.32 108.367 8.572C108.582 8.824 108.927 8.95 109.403 8.95C109.571 8.95 109.716 8.936 109.837 8.908C109.968 8.87067 110.075 8.84733 110.159 8.838C110.262 8.838 110.346 8.87533 110.411 8.95C110.476 9.01533 110.509 9.146 110.509 9.342C110.509 9.482 110.481 9.61267 110.425 9.734C110.378 9.85533 110.29 9.93467 110.159 9.972C110.047 10.0093 109.893 10.042 109.697 10.07C109.51 10.1073 109.342 10.126 109.193 10.126ZM114.532 10.126C113.785 10.126 113.141 9.986 112.6 9.706C112.068 9.41667 111.653 9.01067 111.354 8.488C111.065 7.956 110.92 7.326 110.92 6.598C110.92 5.88867 111.065 5.268 111.354 4.736C111.643 4.204 112.04 3.78867 112.544 3.49C113.048 3.19133 113.622 3.042 114.266 3.042C114.742 3.042 115.167 3.12133 115.54 3.28C115.913 3.42933 116.231 3.65333 116.492 3.952C116.763 4.24133 116.963 4.596 117.094 5.016C117.234 5.436 117.304 5.90733 117.304 6.43C117.304 6.58867 117.257 6.71 117.164 6.794C117.071 6.86867 116.931 6.906 116.744 6.906H112.04V6.038H116.352L116.114 6.234C116.114 5.76733 116.044 5.37067 115.904 5.044C115.773 4.71733 115.573 4.47 115.302 4.302C115.041 4.12467 114.714 4.036 114.322 4.036C113.883 4.036 113.51 4.13867 113.202 4.344C112.903 4.54933 112.675 4.834 112.516 5.198C112.357 5.562 112.278 5.98667 112.278 6.472V6.556C112.278 7.37733 112.469 7.998 112.852 8.418C113.244 8.82867 113.809 9.034 114.546 9.034C114.826 9.034 115.12 8.99667 115.428 8.922C115.745 8.84733 116.044 8.72133 116.324 8.544C116.483 8.45067 116.623 8.40867 116.744 8.418C116.875 8.42733 116.977 8.46933 117.052 8.544C117.136 8.61867 117.187 8.712 117.206 8.824C117.225 8.936 117.206 9.05267 117.15 9.174C117.094 9.286 116.996 9.38867 116.856 9.482C116.539 9.69667 116.17 9.86 115.75 9.972C115.33 10.0747 114.924 10.126 114.532 10.126ZM121.24 10.126C120.829 10.126 120.404 10.0793 119.966 9.986C119.536 9.89267 119.14 9.734 118.776 9.51C118.654 9.426 118.57 9.33267 118.524 9.23C118.477 9.12733 118.458 9.02467 118.468 8.922C118.486 8.81 118.528 8.71667 118.594 8.642C118.668 8.558 118.757 8.50667 118.86 8.488C118.972 8.46933 119.088 8.49267 119.21 8.558C119.574 8.76333 119.924 8.908 120.26 8.992C120.596 9.06667 120.927 9.104 121.254 9.104C121.748 9.104 122.122 9.01533 122.374 8.838C122.626 8.66067 122.752 8.42267 122.752 8.124C122.752 7.88133 122.668 7.69467 122.5 7.564C122.332 7.424 122.08 7.31667 121.744 7.242L120.414 6.976C119.835 6.85467 119.396 6.64 119.098 6.332C118.799 6.024 118.65 5.632 118.65 5.156C118.65 4.72667 118.766 4.35333 119 4.036C119.233 3.71867 119.56 3.476 119.98 3.308C120.4 3.13067 120.885 3.042 121.436 3.042C121.846 3.042 122.234 3.09333 122.598 3.196C122.962 3.29867 123.298 3.45267 123.606 3.658C123.727 3.72333 123.806 3.812 123.844 3.924C123.881 4.02667 123.886 4.12933 123.858 4.232C123.839 4.33467 123.792 4.428 123.718 4.512C123.643 4.58667 123.55 4.63333 123.438 4.652C123.335 4.66133 123.218 4.63333 123.088 4.568C122.808 4.39067 122.528 4.26467 122.248 4.19C121.977 4.11533 121.706 4.078 121.436 4.078C120.941 4.078 120.568 4.17133 120.316 4.358C120.073 4.53533 119.952 4.778 119.952 5.086C119.952 5.31933 120.026 5.51067 120.176 5.66C120.325 5.80933 120.558 5.91667 120.876 5.982L122.206 6.248C122.812 6.36933 123.27 6.57467 123.578 6.864C123.895 7.15333 124.054 7.54533 124.054 8.04C124.054 8.684 123.797 9.19267 123.284 9.566C122.77 9.93933 122.089 10.126 121.24 10.126Z" fill="#333333"/>
</svg>
